<svg xmlns="http://www.w3.org/2000/svg" width="453" height="384" viewBox="0 0 453 384">
<text x="20" y="30" font-size="18" font-family="Arial">Confusion matrix</text>
<text x="123" y="121.0" text-anchor="end" font-size="10" font-family="Arial">true NO_INVEST</text>
<rect x="135" y="76" width="82" height="82" fill="#5983cd" stroke="#ffffff"/>
<text x="176.0" y="121.0" text-anchor="middle" font-size="11" font-family="Arial">1049</text>
<rect x="217" y="76" width="82" height="82" fill="#c3d4ed" stroke="#ffffff"/>
<text x="258.0" y="121.0" text-anchor="middle" font-size="11" font-family="Arial">302</text>
<rect x="299" y="76" width="82" height="82" fill="#edf4f9" stroke="#ffffff"/>
<text x="340.0" y="121.0" text-anchor="middle" font-size="11" font-family="Arial">11</text>
<text x="123" y="203.0" text-anchor="end" font-size="10" font-family="Arial">true CALL</text>
<rect x="135" y="158" width="82" height="82" fill="#eaf2f8" stroke="#ffffff"/>
<text x="176.0" y="203.0" text-anchor="middle" font-size="11" font-family="Arial">30</text>
<rect x="217" y="158" width="82" height="82" fill="#acc3e6" stroke="#ffffff"/>
<text x="258.0" y="203.0" text-anchor="middle" font-size="11" font-family="Arial">463</text>
<rect x="299" y="158" width="82" height="82" fill="#edf4f9" stroke="#ffffff"/>
<text x="340.0" y="203.0" text-anchor="middle" font-size="11" font-family="Arial">11</text>
<text x="123" y="285.0" text-anchor="end" font-size="10" font-family="Arial">true RAISE</text>
<rect x="135" y="240" width="82" height="82" fill="#eef5f9" stroke="#ffffff"/>
<text x="176.0" y="285.0" text-anchor="middle" font-size="11" font-family="Arial">3</text>
<rect x="217" y="240" width="82" height="82" fill="#edf4f9" stroke="#ffffff"/>
<text x="258.0" y="285.0" text-anchor="middle" font-size="11" font-family="Arial">12</text>
<rect x="299" y="240" width="82" height="82" fill="#c2d4ec" stroke="#ffffff"/>
<text x="340.0" y="285.0" text-anchor="middle" font-size="11" font-family="Arial">308</text>
</svg>